<svg id="Layer_1" enable-background="new 0 0 484.418 484.418" height="512" viewBox="0 0 484.418 484.418" width="512" xmlns="http://www.w3.org/2000/svg"><g id="XMLID_38_"><g id="XMLID_7_"><path id="XMLID_4144_" d="m334.528 90.187c0-12.926 14.602-24.117 35.897-29.593 5.476-21.295 16.667-35.897 29.593-35.897s24.117 14.602 29.593 35.897c21.295 5.476 35.897 16.667 35.897 29.593s-14.602 24.117-35.897 29.593c-5.476 21.295-16.667 35.897-29.593 35.897s-24.117-14.602-29.593-35.897c-21.295-5.476-35.897-16.667-35.897-29.593z" fill="#fee95d"/><path id="XMLID_4147_" d="m242.22 459.721c-71.507 0-128.342-24.662-163.43-45.352-37.625-22.184-59.17-44.65-61.502-47.138-6.566-7.004-10.079-16.33-9.768-25.926.311-9.595 4.422-18.673 11.428-25.237l14.149-13.256c6.98-6.541 15.869-9.781 24.738-9.781 9.554 0 19.086 3.759 26.19 11.205.526.54 15.792 16.078 41.899 31.386 25.15 14.747 65.743 32.327 116.296 32.327s91.146-17.58 116.297-32.328c26.084-15.295 41.346-30.818 41.902-31.389 7.104-7.449 16.639-11.21 26.194-11.21 8.878 0 17.771 3.245 24.754 9.797l14.141 13.265c14.574 13.672 15.309 36.568 1.643 51.147-2.333 2.488-23.878 24.954-61.503 47.138-35.086 20.69-91.922 45.352-163.428 45.352z" fill="#b6e6fa"/><g id="XMLID_77_"><path id="XMLID_78_" d="m44.426 296.033.127.132c.706.727 42.749 39.995 71.254 56.71 27.288 16.001 71.371 35.074 126.413 35.074 55.044 0 99.126-19.074 126.414-35.075 25.538-14.974 63.869-50.011 71.526-57.22-4.342-1.752-8.945-2.632-13.546-2.632-9.555 0-19.09 3.761-26.194 11.21-.556.571-15.818 16.094-41.902 31.389-25.151 14.748-65.744 32.328-116.297 32.328s-91.146-17.58-116.296-32.327c-26.107-15.309-41.374-30.846-41.899-31.386-7.104-7.446-16.635-11.205-26.19-11.205-4.663 0-9.329.905-13.723 2.705.102.102.212.192.313.297z" fill="#94b7f7"/></g><path id="XMLID_4145_" d="m149.912 90.187c0-12.926-14.602-24.117-35.897-29.593-5.476-21.295-16.667-35.897-29.593-35.897s-24.117 14.602-29.593 35.897c-21.295 5.476-35.897 16.667-35.897 29.593s14.602 24.117 35.897 29.593c5.476 21.295 16.667 35.897 29.593 35.897s24.117-14.602 29.593-35.897c21.295-5.476 35.897-16.667 35.897-29.593z" fill="#fee95d"/><g id="XMLID_4155_"><path id="XMLID_4158_" d="m33.265 104.52c0-12.926 14.602-24.117 35.897-29.593 5.476-21.295 16.667-35.897 29.593-35.897 2.528 0 4.988.566 7.353 1.624-5.814-9.937-13.392-15.957-21.686-15.957-12.926 0-24.117 14.602-29.593 35.897-21.295 5.476-35.897 16.667-35.897 29.593 0 8.295 6.02 15.872 15.957 21.687-1.058-2.366-1.624-4.826-1.624-7.354z" fill="#fee95d"/></g><g id="XMLID_4149_"><path id="XMLID_4151_" d="m348.861 104.52c0-12.926 14.602-24.117 35.897-29.593 5.476-21.295 16.667-35.897 29.593-35.897 2.528 0 4.988.566 7.353 1.624-5.814-9.937-13.392-15.957-21.686-15.957-12.926 0-24.117 14.602-29.593 35.897-21.295 5.476-35.897 16.667-35.897 29.593 0 8.295 6.02 15.872 15.957 21.687-1.058-2.366-1.624-4.826-1.624-7.354z" fill="#fee95d"/></g><circle id="XMLID_4025_" cx="242.22" cy="227.724" fill="#f072ae" r="72.047"/><path id="XMLID_4152_" d="m184.037 241.588c0-39.791 32.257-72.047 72.047-72.047 16.36 0 31.44 5.461 43.534 14.649-13.158-17.321-33.968-28.513-57.398-28.513-39.791 0-72.047 32.257-72.047 72.047 0 23.43 11.192 44.24 28.513 57.398-9.188-12.094-14.649-27.174-14.649-43.534z" fill="#f05475"/></g><g id="XMLID_76_"><g id="XMLID_203_"><path d="m253.152 276.055-3.308-14.631c4.016-.907 7.806-2.52 11.267-4.79l8.229 12.541c-4.968 3.259-10.414 5.575-16.188 6.88zm28.942-18.948-12.065-8.912c2.461-3.333 4.284-7.029 5.416-10.987l14.422 4.123c-1.627 5.688-4.242 10.996-7.773 15.776zm-5.432-32.096c-.321-4.12-1.368-8.104-3.112-11.84l13.593-6.344c2.507 5.373 4.013 11.099 4.474 17.018z" fill="#f9f3f1"/><g><path d="m428.204 330.718c-.179.189-18.227 19.203-50.133 37.937-29.278 17.189-76.614 37.681-135.851 37.681-59.238 0-106.573-20.491-135.852-37.681-31.906-18.733-49.955-37.747-50.128-37.932l-10.946 10.256c.776.828 19.388 20.51 52.994 40.325 30.972 18.262 81.084 40.031 143.932 40.031s112.96-21.77 143.932-40.031c33.606-19.815 52.218-39.497 52.994-40.325z"/><path d="m470.64 310.614-14.141-13.266c-8.13-7.627-18.744-11.827-29.886-11.827-12.068 0-23.298 4.807-31.563 13.475-.605.621-15.113 15.371-40.327 30.155-24.349 14.278-63.632 31.298-112.503 31.298-48.87 0-88.154-17.02-112.502-31.297-25.313-14.843-40.168-29.993-40.267-30.095-8.324-8.723-19.552-13.527-31.616-13.527-11.133 0-21.74 4.193-29.866 11.809l-14.149 13.256c-8.519 7.981-13.418 18.801-13.797 30.467-.378 11.668 3.81 22.783 11.792 31.298 2.408 2.569 24.64 25.755 63.165 48.47 35.89 21.164 94.039 46.393 167.239 46.393 73.201 0 131.349-25.229 167.242-46.395l.883-.521-7.632-12.914-.874.518c-34.281 20.215-89.801 44.313-159.62 44.313-69.818 0-125.338-24.098-159.62-44.313-36.724-21.653-57.583-43.398-59.84-45.808-5.242-5.591-7.992-12.891-7.744-20.553.249-7.66 3.466-14.766 9.06-20.007l14.149-13.257c5.336-5 12.3-7.754 19.61-7.754 7.924 0 15.298 3.154 20.812 8.933.658.677 16.43 16.765 43.484 32.629 25.952 15.218 67.853 33.357 120.09 33.357 52.238 0 94.139-18.141 120.09-33.358 26.936-15.794 42.816-31.942 43.537-32.683 5.465-5.73 12.84-8.887 20.766-8.887 7.315 0 14.284 2.759 19.623 7.767l14.141 13.266c11.534 10.819 12.118 29.009 1.303 40.547-1.753 1.871-17.956 18.814-46.542 37.54l8.219 12.547c30.043-19.679 47.388-37.823 49.267-39.828 16.471-17.573 15.581-45.272-1.983-61.748z"/><path d="m242.22 307.271c43.863 0 79.547-35.685 79.547-79.548 0-43.862-35.685-79.547-79.547-79.547-15.287 0-30.136 4.349-42.942 12.577l8.107 12.619c10.383-6.67 22.429-10.196 34.834-10.196 35.591 0 64.547 28.956 64.547 64.547 0 35.592-28.956 64.548-64.547 64.548s-64.547-28.956-64.547-64.548c0-17.385 6.811-33.691 19.179-45.913l-10.544-10.67c-15.241 15.063-23.635 35.157-23.635 56.583.001 43.864 35.685 79.548 79.548 79.548z"/><path d="m48.744 125.865c6.999 23.133 20.437 37.312 35.678 37.312s28.679-14.179 35.678-37.312c23.133-7 37.312-20.438 37.312-35.679s-14.178-28.678-37.312-35.677c-6.999-23.134-20.437-37.313-35.678-37.313s-28.679 14.179-35.678 37.313c-23.134 6.998-37.312 20.436-37.312 35.677s14.178 28.679 37.312 35.679zm7.953-58.008 4.292-1.104 1.104-4.292c4.655-18.103 13.628-30.266 22.329-30.266s17.674 12.163 22.329 30.266l1.104 4.292 4.292 1.104c18.103 4.654 30.265 13.628 30.265 22.329s-12.163 17.675-30.266 22.33l-4.292 1.104-1.104 4.292c-4.655 18.103-13.628 30.265-22.329 30.265s-17.674-12.162-22.329-30.265l-1.104-4.292-4.292-1.104c-18.103-4.655-30.266-13.629-30.266-22.33s12.164-17.674 30.267-22.329z"/><path d="m364.339 125.865c6.999 23.133 20.437 37.312 35.678 37.312s28.679-14.179 35.678-37.312c23.133-7 37.312-20.438 37.312-35.679s-14.178-28.68-37.312-35.678c-6.999-23.134-20.437-37.313-35.678-37.313s-28.679 14.179-35.678 37.313c-23.133 6.999-37.312 20.437-37.312 35.678s14.179 28.679 37.312 35.679zm7.954-58.008 4.292-1.104 1.104-4.292c4.655-18.103 13.628-30.266 22.329-30.266s17.674 12.163 22.329 30.266l1.104 4.292 4.292 1.104c18.103 4.654 30.265 13.628 30.265 22.329s-12.163 17.675-30.266 22.33l-4.292 1.104-1.104 4.292c-4.655 18.103-13.628 30.265-22.329 30.265s-17.674-12.162-22.329-30.265l-1.104-4.292-4.292-1.104c-18.103-4.655-30.266-13.629-30.266-22.33s12.164-17.674 30.267-22.329z"/></g></g></g></g></svg>