<svg id="Capa_1" enable-background="new 0 0 512 512" height="512" viewBox="0 0 512 512" width="512" xmlns="http://www.w3.org/2000/svg"><g><g><circle cx="239.968" cy="255.998" fill="#ffe077" r="120.242"/><path d="m175.346 280.046c-5.821 0-9.893 6.1-7.322 11.322 13.067 26.532 40.37 44.79 71.944 44.79s58.877-18.258 71.944-44.79c2.572-5.222-1.501-11.322-7.322-11.322z" fill="#fff"/><path d="m258.049 358.158c-66.407 0-120.242-53.834-120.242-120.242 0-28.596 10.025-54.827 26.695-75.465-27.289 22.042-44.777 55.736-44.777 93.547 0 66.408 53.835 120.242 120.242 120.242 37.811 0 71.505-17.487 93.548-44.777-20.639 16.67-46.869 26.695-75.466 26.695z" fill="#ffd05b"/></g><g><path d="m91.711 368.537c-.015 0-.028 0-.043 0-24.442.136-61.427.268-76.668.163v-232.944c0-4.142-3.357-7.5-7.5-7.5s-7.5 3.358-7.5 7.5v240.281c0 3.653 2.632 6.775 6.233 7.392.546.094 1.832.315 27.118.315 12.576 0 31.094-.055 58.4-.207 4.142-.023 7.481-3.4 7.458-7.542-.022-4.128-3.376-7.458-7.498-7.458z"/><path d="m337.692 185.526c-3.502 2.212-4.547 6.845-2.335 10.347 11.353 17.969 17.353 38.76 17.353 60.125 0 62.166-50.576 112.742-112.742 112.742s-112.742-50.576-112.742-112.742 50.576-112.742 112.742-112.742c27.786 0 54.479 10.195 75.161 28.707 3.088 2.764 7.829 2.499 10.591-.586 2.762-3.086 2.499-7.828-.587-10.59-23.438-20.977-53.683-32.53-85.165-32.53-70.438 0-127.742 57.305-127.742 127.742s57.305 127.742 127.742 127.742 127.742-57.306 127.742-127.743c0-24.205-6.802-47.766-19.671-68.136-2.213-3.503-6.847-4.547-10.347-2.336z"/><path d="m504.501 368.537c-.015 0-.028 0-.043 0-24.442.136-61.427.268-76.668.163v-232.944c0-4.142-3.357-7.5-7.5-7.5s-7.5 3.358-7.5 7.5v240.281c0 3.653 2.632 6.775 6.233 7.392.546.094 1.832.315 27.118.315 12.576 0 31.094-.055 58.4-.207 4.142-.023 7.481-3.4 7.458-7.542-.022-4.128-3.376-7.458-7.498-7.458z"/><path d="m157.441 275.608c-1.413 1.925-1.825 4.408-1.109 6.686 11.531 36.704 45.142 61.365 83.636 61.365s72.104-24.661 83.636-61.365c.716-2.278.304-4.761-1.109-6.686s-3.658-3.062-6.046-3.062h-152.962c-2.387 0-4.633 1.137-6.046 3.062zm148.012 11.938c-11.953 24.959-37.12 41.113-65.485 41.113s-53.532-16.154-65.485-41.113z"/><path d="m174.836 242.622c2.535-6.692 9.381-11.188 17.035-11.188s14.5 4.496 17.034 11.188c1.136 3 3.987 4.846 7.015 4.846.883 0 1.78-.157 2.654-.488 3.874-1.467 5.825-5.796 4.358-9.67-4.728-12.487-17.21-20.876-31.062-20.876-13.851 0-26.334 8.389-31.062 20.876-1.467 3.874.483 8.203 4.357 9.67 3.873 1.467 8.204-.484 9.671-4.358z"/><path d="m264.016 247.467c3.027 0 5.88-1.847 7.015-4.846 2.534-6.692 9.38-11.188 17.034-11.188s14.5 4.497 17.035 11.188c1.467 3.874 5.799 5.823 9.67 4.357 3.874-1.467 5.824-5.796 4.357-9.67-4.729-12.487-17.212-20.876-31.062-20.876-13.852 0-26.334 8.39-31.062 20.876-1.467 3.874.484 8.203 4.358 9.67.874.333 1.772.489 2.655.489z"/></g></g></svg>