<svg id="Layer_1" enable-background="new 0 0 512 512" height="512" viewBox="0 0 512 512" width="512" xmlns="http://www.w3.org/2000/svg"><g><path d="m282.432 498.273c-5.625-2.312-9.298-7.792-9.298-13.874v-67.482l-183.391 24.454c-22.644 3.021-45.495-3.88-62.691-18.934-17.192-15.051-27.052-36.788-27.052-59.639v-223.792c0-39.564 29.573-73.343 68.791-78.573l353.465-47.132c22.647-3.022 45.496 3.881 62.692 18.934 17.192 15.051 27.052 36.789 27.052 59.639v223.792c0 39.564-29.573 73.343-68.791 78.573l-51.614 6.883-92.796 93.825c-4.572 4.623-11.133 5.477-16.367 3.326z" fill="#8e4dd5"/><path d="m484.948 32.236c-17.196-15.053-40.045-21.956-62.692-18.934l-180.716 24.097v383.731l31.594-4.213v67.482c0 6.082 3.673 11.562 9.298 13.874 5.234 2.15 11.795 1.297 16.367-3.326l92.796-93.825 51.614-6.883c39.218-5.229 68.791-39.008 68.791-78.572v-223.793c0-22.85-9.86-44.588-27.052-59.638z" fill="#7a3db4"/><path d="m143.533 276.599h-49.266v-113.533c0-8.284-6.716-15-15-15s-15 6.716-15 15v128.533c0 8.284 6.716 15 15 15h64.267c8.284 0 15-6.716 15-15s-6.717-15-15.001-15z" fill="#ffe705"/><path d="m432.733 276.599h-49.267v-113.533c0-8.284-6.716-15-15-15s-15 6.716-15 15v128.533c0 8.284 6.716 15 15 15h64.267c8.284 0 15-6.716 15-15s-6.715-15-15-15z" fill="#ffcb00"/><path d="m241.54 146.459c-44.594 0-80.873 36.279-80.873 80.873s36.279 80.874 80.873 80.874 80.873-36.28 80.873-80.874-36.279-80.873-80.873-80.873zm0 131.747c-28.052 0-50.873-22.822-50.873-50.874 0-28.051 22.821-50.873 50.873-50.873s50.873 22.822 50.873 50.873c0 28.052-22.821 50.874-50.873 50.874z" fill="#ffe705"/><path d="m292.413 227.332c0 28.052-22.821 50.874-50.873 50.874v30c44.594 0 80.873-36.28 80.873-80.874s-36.279-80.873-80.873-80.873v30c28.052 0 50.873 22.822 50.873 50.873z" fill="#ffcb00"/></g></svg>