<?xml version="1.0" encoding="UTF-8" standalone="no"?>
<!-- Created with Inkscape (http://www.inkscape.org/) -->

<svg
   version="1.1"
   id="svg3747"
   xml:space="preserve"
   width="682.66669"
   height="682.66669"
   viewBox="0 0 682.66669 682.66669"
   xmlns="http://www.w3.org/2000/svg"
   xmlns:svg="http://www.w3.org/2000/svg"><defs
     id="defs3751"><clipPath
       clipPathUnits="userSpaceOnUse"
       id="clipPath3769"><path
         d="M 0,512 H 512 V 0 H 0 Z"
         id="path3767" /></clipPath></defs><g
     id="g3753"
     transform="matrix(1.3333333,0,0,-1.3333333,0,682.66667)"><g
       id="g3755"
       transform="translate(79.2666,348.9365)"><path
         d="M 0,0 V -128.534 H 64.267"
         style="fill:none;stroke:#000000;stroke-width:30;stroke-linecap:round;stroke-linejoin:round;stroke-miterlimit:10;stroke-dasharray:none;stroke-opacity:1"
         id="path3757" /></g><g
       id="g3759"
       transform="translate(368.4668,348.9365)"><path
         d="M 0,0 V -128.534 H 64.267"
         style="fill:none;stroke:#000000;stroke-width:30;stroke-linecap:round;stroke-linejoin:round;stroke-miterlimit:10;stroke-dasharray:none;stroke-opacity:1"
         id="path3761" /></g><g
       id="g3763"><g
         id="g3765"
         clip-path="url(#clipPath3769)"><g
           id="g3771"
           transform="translate(241.54,350.543)"><path
             d="m 0,0 c 36.356,0 65.873,-29.515 65.873,-65.874 0,-36.358 -29.517,-65.873 -65.873,-65.873 -36.356,0 -65.873,29.515 -65.873,65.873 C -65.873,-29.515 -36.356,0 0,0 Z"
             style="fill:none;stroke:#000000;stroke-width:30;stroke-linecap:round;stroke-linejoin:round;stroke-miterlimit:10;stroke-dasharray:none;stroke-opacity:1"
             id="path3773" /></g><g
           id="g3775"
           transform="translate(497,420.1279)"><path
             d="M 0,0 C 0,18.524 -7.994,36.15 -21.933,48.352 -35.871,60.563 -54.397,66.154 -72.761,63.704 -169.621,50.794 -338.832,28.229 -426.227,16.581 -458.155,12.323 -482,-14.918 -482,-47.124 v -223.8 c 0,-18.525 7.994,-36.15 21.933,-48.353 13.938,-12.202 32.464,-17.794 50.828,-15.352 80.913,10.789 200.373,26.719 200.373,26.719 v -84.615 l 96.399,97.468 c 0,0 28.425,3.792 56.694,7.56 31.927,4.258 55.773,31.491 55.773,63.704 z"
             style="fill:none;stroke:#000000;stroke-width:30;stroke-linecap:round;stroke-linejoin:round;stroke-miterlimit:10;stroke-dasharray:none;stroke-opacity:1"
             id="path3777" /></g></g></g></g></svg>
