<svg id="Emoji" enable-background="new 0 0 250 250" height="512" viewBox="0 0 250 250" width="512" xmlns="http://www.w3.org/2000/svg"><g><path d="m238.6 90.9v-22.7h-11.3v-22.7h-11.4v-11.4h-11.4v-11.4h-22.7v-11.3h-22.7v-11.4h-68.2v11.4h-22.7v11.3h-22.7v11.4h-11.4v11.4h-11.4v22.7h-11.3v22.7h-11.4v68.2h11.4v22.7h11.3v22.7h11.4v11.4h11.4v11.4h22.7v11.3h22.7v11.4h68.2v-11.4h22.7v-11.3h22.7v-11.4h11.4v-11.4h11.4v-22.7h11.3v-22.7h11.4v-68.2z" fill="#231f20"/><path d="m227.3 90.9v-22.7h-11.4v-22.7h-11.4v-11.4h-22.7v-11.4h-22.7v-11.3h-68.2v11.3h-22.7v11.4h-22.7v11.4h-11.4v22.7h-11.4v22.7h-11.3v68.2h11.3v22.7h11.4v22.7h11.4v11.4h22.7v11.4h22.7v11.3h68.2v-11.3h22.7v-11.4h22.7v-11.4h11.4v-22.7h11.4v-22.7h11.3v-68.2z" fill="#ffcc4d"/><g fill="#ff92bc"><path d="m22.7 147.7h34.1v11.4h-34.1z"/><path d="m193.2 147.7h34.1v11.4h-34.1z"/></g><path d="m113.6 181.8h22.7v11.4h-22.7z" fill="#e03476"/><g fill="#231f20"><path d="m68.2 56.8h22.7v11.4h-22.7z"/><path d="m159.1 56.8h22.7v11.4h-22.7z"/><path d="m90.9 68.2h11.4v11.4h-11.4z"/><path d="m147.7 68.2h11.4v11.4h-11.4z"/><path d="m102.3 79.6h11.4v11.4h-11.4z"/><path d="m136.4 79.6h11.4v11.4h-11.4z"/><path d="m56.8 90.9h34.1v11.4h-34.1z"/><path d="m159.1 90.9h34.1v11.4h-34.1z"/><path d="m45.5 102.3h11.4v11.4h-11.4z"/><path d="m90.9 102.3h11.4v11.4h-11.4z"/><path d="m147.7 102.3h11.4v11.4h-11.4z"/><path d="m193.2 102.3h11.4v11.4h-11.4z"/><path d="m34.1 113.6h11.4v22.7h-11.4z"/><path d="m136.4 113.6h11.4v22.7h-11.4z"/><path d="m204.5 113.6h11.4v22.7h-11.4z"/><path d="m102.3 113.6h11.4v22.7h-11.4z"/><path d="m79.6 159.1h11.4v11.4h-11.4z"/><path d="m159.1 159.1h11.4v11.4h-11.4z"/><path d="m90.9 170.4v11.4h11.4v11.4h11.3v-11.4h22.8v11.4h11.3v-11.4h11.4v-11.4z"/><path d="m113.6 193.2h22.7v11.4h-22.7z"/></g><g fill="#edae3e"><path d="m79.6 68.2h11.4v11.4h-11.4z"/><path d="m159.1 68.2h11.4v11.4h-11.4z"/><path d="m90.9 79.6h11.4v11.4h-11.4z"/><path d="m147.7 79.6h11.4v11.4h-11.4z"/><path d="m102.3 90.9h11.4v11.4h-11.4z"/><path d="m136.4 90.9h11.4v11.4h-11.4z"/><path d="m22.7 125h11.4v11.4h-11.4z"/><path d="m45.5 125h11.4v11.4h-11.4z"/><path d="m193.2 125h11.4v11.4h-11.4z"/><path d="m215.9 125h11.4v11.4h-11.4z"/><path d="m22.7 170.4h11.4v11.4h-11.4z"/><path d="m215.9 170.4h11.4v11.4h-11.4z"/><path d="m90.9 181.8h11.4v11.4h-11.4z"/><path d="m147.7 181.8h11.4v11.4h-11.4z"/><path d="m34.1 193.2h11.4v11.4h-11.4z"/><path d="m102.3 193.2h11.4v11.4h-11.4z"/><path d="m136.4 193.2h11.4v11.4h-11.4z"/><path d="m204.5 193.2h11.4v11.4h-11.4z"/><path d="m45.5 204.5h22.7v11.4h-22.7z"/><path d="m113.6 204.5h22.7v11.4h-22.7z"/><path d="m181.8 204.5h22.7v11.4h-22.7z"/><path d="m68.2 215.9h22.7v11.4h-22.7z"/><path d="m159.1 215.9h22.7v11.4h-22.7z"/><path d="m90.9 227.3h68.2v11.4h-68.2z"/></g></g></svg>