<svg id="Layer_1" enable-background="new 0 0 500 500" viewBox="0 0 500 500" xmlns="http://www.w3.org/2000/svg"><g><g><path d="m475 163.936c0 7.958-15.987 1.831-19.191 6.373-.951 1.303-1.162 3.873-1.162 6.937 0 3.557.388 7.783.388 11.338 0 4.191-.528 7.465-2.747 7.641h-.105c-.458.035-.986-.105-1.549-.387l-94.159-21.867 27.677-62.503c0-3.592 3.239-4.296 7.113-4.437l13.557-26.128h.035c.423-.986 1.021-1.691 1.972-1.761 5.599-.493 15.846 19.578 22.748 23.593 5 2.887 11.726-.67 17.183-.212 2.113.177 3.98.951 5.529 2.853 4.965 6.198 1.479 17.747 2.606 26.234.177 1.338.458 2.57.916 3.733 3.202 8.31 19.189 20.6 19.189 28.593z" fill="#f3d35a"/><g fill="#ebb12a"><path d="m391.263 107.032-34.79 66.94 27.677-62.503c0-3.592 3.24-4.296 7.113-4.437z"/><path d="m454.893 131.611-50.636 21.797-47.783 20.564 45.741-36.199 44.544-35.249c2.113.177 3.98.951 5.529 2.853 4.964 6.198 1.478 17.747 2.605 26.234z"/><path d="m455.034 188.585c0 4.191-.528 7.465-2.747 7.641h-.105c-.458.035-.986-.105-1.549-.387l-94.159-21.867 98.173 3.275c0 3.556.387 7.782.387 11.338z"/></g></g><path d="m27.858 332.266 101.464-13.709s-77 24.11-78.265 24.11c-1.264.001-23.199-10.401-23.199-10.401z" fill="#f3d35a"/><path d="m94.916 419.603 15.062-29.394h-17.702z" fill="#f3d35a"/><path d="m166.543 383.026-74.443-42.98v-85.956l74.443 42.98z" fill="#ebb12a"/><path d="m92.1 253.991 242.81-140.187 74.442 42.979-242.809 140.187z" fill="#f3d35a"/><g><path d="m408.949 242.836-242.816 140.19v-85.956l242.816-140.191z" fill="#e58d21"/><g fill="#d40909"><path d="m347.529 230.276-119.977 69.269v-12.737l119.977-69.269z"/><path d="m347.529 253.097-119.977 69.269v-12.738l119.977-69.269z"/></g></g><path d="m47.706 303.756 81.616 14.801-13.463 69.978z" fill="#f3d35a"/><g opacity=".6"><path d="m85.959 327.135 43.363-8.578-33.335 38.948z" fill="#ebb12a"/></g><g><path d="m115.859 388.535c0 7.963-15.969 1.831-19.192 6.401-3.324 4.715 2.23 25.399-3.514 25.921-5.57.505-15.827-19.598-22.724-23.579-6.897-3.982-17.155 4.276-22.724-2.66-5.745-7.155-.19-21.425-3.514-29.978-3.221-8.292-19.191-20.599-19.191-28.562s15.97-1.831 19.191-6.402c3.324-4.715-2.23-25.399 3.515-25.92 5.569-.506 15.826 19.597 22.723 23.579s17.155-4.276 22.724 2.66c5.745 7.155.19 21.424 3.514 29.978 3.223 8.29 19.192 20.598 19.192 28.562z" fill="#ebb12a"/><path d="m104.927 382.223c0 6.047-12.127 1.39-14.574 4.86-2.524 3.58 1.694 19.287-2.668 19.683-4.229.383-12.018-14.882-17.256-17.905-5.237-3.023-13.026 3.247-17.256-2.02-4.362-5.434-.144-16.269-2.668-22.764-2.446-6.296-14.573-15.642-14.573-21.689s12.126-1.391 14.573-4.86c2.524-3.58-1.694-19.288 2.668-19.683 4.229-.383 12.018 14.882 17.256 17.905 5.237 3.023 13.026-3.247 17.256 2.02 4.363 5.433.145 16.269 2.668 22.764 2.446 6.296 14.574 15.642 14.574 21.689z" fill="#e58d21"/></g></g></svg>